<svg xmlns="http://www.w3.org/2000/svg" version="1.1" viewBox="-5.0 -10.0 110.0 135.0">
 <path d="m89.617 13.352c-1.3828-2.4531-3.9922-3.9766-6.8125-3.9766-1.082 0-2.1328 0.21875-3.1289 0.65625-0.45312 0.19922-0.78516 0.60156-0.89453 1.0859-0.10938 0.48437 0.015625 0.98828 0.33984 1.3672l2.6992 3.1328c0.03125 0.035156 0.066407 0.070312 0.10156 0.10547-0.078125-0.023437-0.27734-0.085937-0.27734-0.085937-0.44922-0.14062-0.96484-0.21094-1.4961-0.21094-1.6094 0-3.1094 0.66797-4.2266 1.8828-0.11719 0.11719-0.69141 0.69531-1.5742 1.5781-6.6523-6.1445-15.242-9.5117-24.348-9.5117-19.816 0-35.938 16.121-35.938 35.938 0 9.1328 3.3828 17.742 9.5586 24.402-5.4453 5.457-12.77 12.805-12.852 12.887-0.89062 0.87891-1.3867 2.0547-1.3945 3.3047-0.007812 1.2539 0.47266 2.4336 1.3516 3.3242 0.87891 0.89062 2.0547 1.3867 3.3047 1.3945h0.03125c1.2422 0 2.4102-0.48047 3.3008-1.3594 0.097657-0.097656 8.4883-8.5156 13.496-13.531 4.6641 2.9414 9.9023 4.75 15.367 5.3203-0.082031 0.31641-0.13281 0.64844-0.13281 0.99219 0 1.3867 0.55469 2.6836 1.5586 3.6562 1.8516 1.7891 4.7266 2.1484 8.7617 2.1484 1.3633 0 2.8711-0.042968 4.8555-0.10937 1.6523-0.054688 3.3633-0.11328 4.9375-0.11328 1.0469 0 1.9336 0.023438 2.7109 0.078125 1.2266 0.082031 1.9727 0.21875 2.3984 0.33203 0.55078 1.5078 2.0039 2.5859 3.6836 2.5859 2.1523 0 3.9062-1.7539 3.9062-3.9062 0-1.6406-0.625-3.1133-1.8125-4.2578-2.2695-2.1953-5.9766-2.6445-10.844-2.6445-1.6719 0-3.5078 0.054688-5.2461 0.11328-0.47656 0.015624-1 0.035156-1.5352 0.050781 15.238-4.1641 26.469-18.129 26.469-34.668 0-6.8477-1.918-13.461-5.5586-19.207 0.45312-0.45312 0.83203-0.83203 1.1133-1.1172 0.34375 0.042969 0.69141 0.066407 1.043 0.066407 1.4609 0 2.8828-0.36719 4.1133-1.0625 1.8164-1.0234 3.1289-2.6953 3.6875-4.707 0.5625-2.0078 0.30469-4.1172-0.71875-5.9336zm-50.891 34.773c-0.4375 0.4375-0.85547 0.89062-1.2656 1.3594-4.9844-7.0664-7.6094-15.348-7.6094-24.074 0-2.1172 0.16406-4.25 0.48438-6.3516 0.60937-0.45703 1.2344-0.89453 1.875-1.3086-0.039063 0.74609-0.058594 1.4922-0.058594 2.2305 0 9.582 2.9492 18.664 8.5352 26.367-0.6875 0.57422-1.3477 1.1641-1.9609 1.7773zm4.4453-3.6719c-5.168-7.1484-7.8945-15.578-7.8945-24.469 0-1.3516 0.070312-2.7266 0.20312-4.0938 0.6875-0.33984 1.3906-0.65625 2.1016-0.94922 0.085938 9.8008 3.3828 19.332 9.3477 27.066-1.2617 0.76563-2.5312 1.5781-3.7578 2.4453zm6.4805-4.0352c-5.7773-7.3477-8.9453-16.484-8.9453-25.863 0-0.23438 0.003907-0.46875 0.007813-0.71484 0.81641-0.24219 1.6406-0.45312 2.4805-0.62891 0.83203 9.1602 4.5 17.922 10.449 24.957-0.64062 0.36719-1.3125 0.74219-1.9922 1.1211-0.64453 0.36328-1.3164 0.74219-2 1.1289zm-2.2383-27.816c0.76953 0.55859 1.9727 1.6016 2.3594 1.9883 1.1133 1.1133 2.1641 2.293 3.1445 3.5195-1.0469 0.27734-2.082 0.59375-3.1055 0.94922-1.0078-1.4922-2.1133-2.9336-3.2969-4.3008-0.09375-0.67969-0.16797-1.3633-0.22656-2.0469 0.375-0.042969 0.75-0.078126 1.125-0.10938zm8.3555 0.40234c0.57422 0.51562 1.1406 1.0469 1.6797 1.5859 0.73438 0.73438 1.4453 1.5 2.1211 2.2852-1.1055 0.11719-2.1992 0.27734-3.2891 0.47656-1.25-1.6797-2.6328-3.2812-4.1133-4.7812 1.2148 0.082032 2.418 0.22656 3.6016 0.43359zm7.6367 3.6211c-0.51562-0.66016-1.0508-1.3125-1.6016-1.9492 1.4375 0.55469 2.832 1.207 4.1758 1.9609-0.50391-0.015625-1.0039-0.027344-1.5078-0.027344-0.35547 0.003906-0.71094 0.007813-1.0664 0.015625zm-7.0547 19.906c-0.27734-0.32031-0.54687-0.64453-0.81641-0.97656 1.3359-0.71875 2.7031-1.3594 4.1055-1.9258-0.58203 0.58203-1.1172 1.1172-1.5938 1.5977-0.39844 0.39844-0.98438 0.83594-1.6953 1.3047zm8.125-7.7461c-3.7812 0.9375-7.4219 2.3633-10.84 4.25-0.80469-1.1562-1.5469-2.3477-2.2266-3.5742 5.1602-2.5391 10.855-3.9922 16.637-4.2539-1.1719 1.1758-2.3828 2.3906-3.5703 3.5781zm6.707-6.7266c-0.42969-0.011719-0.85547-0.019532-1.2812-0.019532-6.9062 0-13.754 1.6016-19.906 4.6367-0.57031-1.2305-1.0781-2.4883-1.5234-3.7695 5.0703-2.1016 10.449-3.168 16.004-3.168 2.25 0 4.5195 0.18359 6.7422 0.54297 0.3125 0.26562 0.62109 0.53906 0.92578 0.81641-0.30859 0.30859-0.62891 0.62891-0.96094 0.96094zm-44.332 0.019531c-0.082031 1.1094-0.125 2.2227-0.125 3.332 0 9.6914 3.0156 18.875 8.7266 26.629-0.9375 1.3125-1.793 2.6719-2.5781 4.0156-5.4609-7.2344-8.4492-16.109-8.4492-25.219 0-2.2422 0.18359-4.4961 0.53906-6.7109 0.60156-0.70703 1.2305-1.3906 1.8867-2.0469zm-4.207 41.371c0.003907-0.0625 0.007813-0.125 0.003907-0.19141-0.023438-0.55859-0.03125-1.1172-0.03125-1.6602 0-4.6016 0.73437-9.0859 2.1836-13.375 0.6875 1.6406 1.4688 3.2422 2.3477 4.793-1.4219 4.3359-2.168 8.8594-2.2227 13.461-0.82422-0.97266-1.5859-1.9844-2.2812-3.0273zm-1.293-30.484c-0.79687 0.5-1.582 1.0312-2.3477 1.582 0.625-1.8008 1.4062-3.5273 2.3242-5.1719-0.015625 0.48828-0.027344 0.97656-0.027344 1.4609 0 0.71484 0.015625 1.4219 0.050781 2.1289zm-3.6641 6.6172c1.2617-1.1055 2.5898-2.1367 3.9727-3.082 0.15234 1.2031 0.35547 2.3984 0.60547 3.582-1.75 1.043-3.4297 2.207-5.0312 3.4844 0.070313-1.3477 0.22266-2.6797 0.45312-3.9844zm-0.41797 8.0508c1.8047-1.625 3.7422-3.0859 5.7852-4.3711 0.042968 0.15234 0.089843 0.30469 0.13281 0.45703-0.019531 0.039062-0.039062 0.078125-0.058594 0.11719-0.61719 1.4375-1.1562 2.8984-1.6211 4.3828-1.3242 0.82422-2.6133 1.7227-3.8516 2.6875-0.17969-1.0742-0.30859-2.168-0.38672-3.2734zm3.082 5.1562c-0.32812 1.6562-0.5625 3.3359-0.70312 5.0352-0.47266-1.1484-0.87891-2.3242-1.2188-3.5195 0.625-0.52344 1.2656-1.0312 1.9219-1.5156zm9.0156 3.7578c0.58594 0.84375 1.207 1.668 1.8516 2.4727-0.30469 0.5625-0.59766 1.1133-0.88281 1.6484-0.80078 1.5039-1.5391 2.8945-2.2305 4.0156 0.15625-2.7617 0.57812-5.4805 1.2617-8.1367zm46.535-25.945c1.1719 0.015626 2.3555 0.082032 3.5352 0.19922 0.33984 0.69141 0.65625 1.3906 0.94922 2.1016-2.5078 0.019531-5 0.24609-7.4492 0.67578 1.0078-1.0156 2.0117-2.0234 2.9648-2.9766zm-6.1992 14.211c-0.007813 0.64453-0.035156 1.2891-0.074219 1.9336-0.65234-0.32031-1.2969-0.65625-1.9375-1.0078 0.66406-0.32422 1.3359-0.63281 2.0117-0.92578zm3.125-1.1914c1.4805-0.5 2.9844-0.91016 4.5117-1.2383 0.10156 2.3906 0.003906 4.7852-0.30078 7.1523-1.4844-0.40234-2.9492-0.88672-4.3789-1.4492 0.13281-1.4844 0.1875-2.9766 0.16797-4.4648zm7.6211-1.7852c0.71484-0.097657 1.4336-0.17969 2.1562-0.23828 0.13672 1.2266 0.20703 2.4648 0.20703 3.7148 0 1.8047-0.14844 3.5742-0.42969 5.3008-0.76562-0.10156-1.5234-0.22656-2.2812-0.37109 0.375-2.7812 0.49219-5.6016 0.34766-8.4062zm-11.695-4.0664c3.8789-1.1602 7.9141-1.7461 12.004-1.7461 0.23438 0 0.47656 0.003906 0.72266 0.007812 0.24219 0.81641 0.44922 1.6445 0.625 2.4805-6.1836 0.55078-12.066 2.3438-17.512 5.332-0.29688-0.19922-0.58984-0.40234-0.87891-0.60938 0.45703-0.71484 0.88281-1.2969 1.2656-1.6836 1.0156-1.0195 2.3281-2.3359 3.7734-3.7812zm-7.6641 10.117c0.35547-0.66406 0.70703-1.3164 1.0469-1.9414 5.832 4.1016 12.547 6.75 19.594 7.7344-0.24219 0.91797-0.52344 1.8164-0.83984 2.6992-7.4414-0.29297-14.605-2.543-20.855-6.5391 0.36328-0.67188 0.71484-1.3242 1.0547-1.9531zm-2.582 4.6797c6.3555 4.0312 13.586 6.3828 21.105 6.8711-0.39062 0.8125-0.8125 1.6094-1.2656 2.3828-0.41016 0.011719-0.81641 0.019532-1.207 0.019532-7.3789 0-14.578-1.9297-20.918-5.5938 0.80859-1.207 1.5703-2.4492 2.2852-3.6797zm-4.1328 6.2227c6.6328 3.8984 14.156 6.0234 21.891 6.1719-0.57422 0.76562-1.1836 1.5078-1.8242 2.2227-0.91406 0.058594-1.832 0.089844-2.7305 0.089844-7.1328 0-14.102-1.8047-20.285-5.2383 0.20703-0.19531 0.41406-0.39062 0.61719-0.59375 0.82031-0.82422 1.5938-1.7188 2.332-2.6523zm-5.5078 5.3789c6.7383 3.9766 14.402 6.1211 22.27 6.2227-0.96094 0.8125-1.9688 1.5664-3.0156 2.2656-0.62109 0.027344-1.2383 0.042969-1.8359 0.042969-7.5938 0-14.945-2.0273-21.406-5.8789 1.3477-0.80469 2.6992-1.6836 3.9883-2.6523zm-4.168 13.531c0.11328-0.85156 0.25781-1.7031 0.42188-2.5469 0.98047-1.0352 1.918-2.1172 2.7969-3.2383 0.86328 0.38672 1.7383 0.74609 2.625 1.0781-0.25391 0.26953-0.51172 0.53516-0.77344 0.79297-1.1484 1.1523-3.2461 2.8867-4.9531 3.9297-0.035156-0.003906-0.078125-0.011719-0.11719-0.015625zm7.2812-1.7031c0.62109-0.62109 1.2305-1.2695 1.8203-1.9297 0.875 0.25391 1.7617 0.47656 2.6523 0.67578-1.2539 1.1719-2.582 2.2734-3.9688 3.2852-0.82031 0.066406-1.6484 0.097656-2.4844 0.097656-0.13672 0-0.26953-0.003906-0.40625-0.003906 0.92188-0.74609 1.7656-1.5039 2.3867-2.125zm7.6797 0c0.19141-0.19141 0.37891-0.38281 0.56641-0.57812 0.74609 0.10156 1.4922 0.17969 2.2422 0.24609-1.2344 0.50781-2.5078 0.94531-3.8125 1.3047 0.33984-0.32422 0.67578-0.64453 1.0039-0.97266zm-17.895-7.4375c0.51953 0.33984 1.0469 0.66797 1.582 0.98438-0.78516 2.4453-1.3555 4.957-1.7109 7.5039-0.91406-0.23828-1.8125-0.51953-2.7031-0.83594 0.085937-2.2148 0.35156-4.4219 0.78125-6.5781 0.66797-0.34375 1.3516-0.69922 2.0508-1.0742zm-5.8945 6.3789c-0.80859-0.38672-1.6055-0.80859-2.3828-1.2617-0.003906-0.16797-0.007812-0.33594-0.011719-0.50391 0.67969-0.53906 1.6328-1.1094 2.7578-1.7227-0.16406 1.1562-0.28516 2.3203-0.36328 3.4883zm25.246 8.1172c1.707-0.058594 3.5078-0.10938 5.1328-0.10938 4.8633 0 7.3789 0.51172 8.6719 1.7656 0.57031 0.55078 0.85547 1.2266 0.85547 2.0117 0 0.42969-0.35156 0.78125-0.78125 0.78125-0.40625 0-0.75-0.31641-0.78125-0.72266-0.035156-0.48828-0.29688-0.93359-0.71094-1.2031-0.79688-0.51562-2.2734-0.84766-4.3789-0.98828-0.84375-0.054688-1.8008-0.085938-2.918-0.085938-1.6289 0-3.3672 0.058594-5.0469 0.11719-1.9531 0.066406-3.4297 0.10547-4.75 0.10547-3.75 0-5.6562-0.36719-6.5898-1.2695-0.39062-0.37891-0.60547-0.87891-0.60547-1.4102 0-0.42969 0.35156-0.78125 0.78125-0.78125 0.38281 0 0.64453 0.26172 0.73828 0.52344 0.16016 0.46094 0.52734 0.81641 0.99219 0.96875 0.86719 0.28125 2.3125 0.40625 4.6875 0.40625 1.5898-0.003906 3.3125-0.0625 4.7031-0.10937zm26.211-64.605c-0.33594 1.207-1.1211 2.2109-2.2109 2.8242-0.75391 0.42578-1.6719 0.66016-2.5781 0.66016-0.41406 0-0.82031-0.046875-1.207-0.14062-0.53125-0.12891-1.0898 0.027343-1.4766 0.41406-0.12109 0.12109-12.137 12.184-17.082 17.129-1.3906 1.3906-2.7344 3.8984-4.4375 7.0742-2.2227 4.1445-4.9883 9.3047-8.5039 12.82-3.4844 3.4844-8.3359 5.9766-12.238 7.9805-2.8711 1.4727-5.168 2.6562-6.5938 3.9727-0.125 0.089844-0.23438 0.19531-0.32812 0.31641-4.2617 4.2617-15.406 15.449-15.512 15.551-0.29297 0.28906-0.68359 0.44922-1.0977 0.44922h-0.011719c-0.41797-0.003906-0.80859-0.16797-1.1016-0.46484s-0.45312-0.69141-0.44922-1.1094 0.16797-0.80859 0.47266-1.1094c0.10547-0.10547 10.637-10.676 15.828-15.867 1.4219-1.4219 2.75-3.9219 4.293-6.8164 2.0078-3.7695 4.5078-8.4648 7.8398-11.797 3.3242-3.3242 8.2695-6.0938 12.242-8.3164 3.0391-1.6992 5.6641-3.1719 7.0781-4.582 2.6328-2.6328 7.0547-7.0664 10.848-10.867 3.8555-3.8672 7.0898-7.1133 7.1055-7.1328 0.66797-0.73438 1.4258-0.88672 1.9414-0.88672 0.3125 0 0.47266 0.042969 0.62109 0.089844 0.38672 0.11719 0.86719 0.26953 1.4258 0.26953 0.49609 0 0.96094-0.12109 1.3828-0.35938 0.72656-0.41016 1.25-1.0781 1.4766-1.8828 0.22266-0.80469 0-1.8516-0.28906-2.375-0.28125-0.50391-1.4805-1.7695-1.4805-1.7695 1.5039 0.15234 2.8594 1.0312 3.6094 2.3633 0.61328 1.0898 0.76953 2.3555 0.43359 3.5625z"/>
 <path d="m47.98 50.457c-0.60938-0.60938-1.5977-0.60938-2.2109 0-0.60938 0.60938-0.60938 1.5977 0 2.2109l1.5625 1.5625c0.30469 0.30469 0.70312 0.45703 1.1055 0.45703 0.39844 0 0.80078-0.15234 1.1055-0.45703 0.60938-0.60938 0.60938-1.5977 0-2.2109z"/>
 <path d="m43.293 52.02c-0.60938-0.60938-1.5977-0.60938-2.2109 0-0.60938 0.60938-0.60938 1.5977 0 2.2109l4.6875 4.6875c0.30469 0.30469 0.70312 0.45703 1.1055 0.45703 0.39844 0 0.80078-0.15234 1.1055-0.45703 0.60938-0.60938 0.60938-1.5977 0-2.2109z"/>
 <path d="m41.73 56.707c-0.60938-0.60938-1.5977-0.60938-2.2109 0-0.60938 0.60938-0.60938 1.5977 0 2.2109l1.5625 1.5625c0.30469 0.30469 0.70312 0.45703 1.1055 0.45703 0.39844 0 0.80078-0.15234 1.1055-0.45703 0.60938-0.60938 0.60938-1.5977 0-2.2109z"/>
</svg>
